<svg width="814" height="605" viewBox="0 0 814 605" fill="none" xmlns="http://www.w3.org/2000/svg">
<ellipse cx="406.5" cy="302.5" rx="304.5" ry="302.5" fill="#590C59"/>
<g filter="url(#filter0_d_24_6)">
<mask id="path-2-outside-1_24_6" maskUnits="userSpaceOnUse" x="160" y="244" width="496" height="107" fill="black">
<rect fill="white" x="160" y="244" width="496" height="107"/>
<path d="M164.621 348V278.624H188.941V348H164.621ZM176.781 270.944C172.343 270.944 168.759 269.707 166.029 267.232C163.298 264.757 161.933 261.685 161.933 258.016C161.933 254.347 163.298 251.275 166.029 248.8C168.759 246.325 172.343 245.088 176.781 245.088C181.218 245.088 184.802 246.283 187.533 248.672C190.263 250.976 191.629 253.963 191.629 257.632C191.629 261.472 190.263 264.672 187.533 267.232C184.887 269.707 181.303 270.944 176.781 270.944ZM205.898 348V258.4H226.762L276.17 318.048H266.314V258.4H291.146V348H270.282L220.874 288.352H230.729V348H205.898ZM354.207 349.792C347.039 349.792 340.425 348.64 334.367 346.336C328.308 344.032 323.017 340.789 318.495 336.608C314.057 332.341 310.601 327.392 308.127 321.76C305.652 316.128 304.415 309.941 304.415 303.2C304.415 296.459 305.652 290.272 308.127 284.64C310.601 279.008 314.057 274.101 318.495 269.92C323.017 265.653 328.308 262.368 334.367 260.064C340.425 257.76 347.039 256.608 354.207 256.608C361.46 256.608 368.073 257.76 374.047 260.064C380.105 262.368 385.353 265.653 389.791 269.92C394.228 274.101 397.684 279.008 400.159 284.64C402.719 290.272 403.999 296.459 403.999 303.2C403.999 309.941 402.719 316.171 400.159 321.888C397.684 327.52 394.228 332.427 389.791 336.608C385.353 340.789 380.105 344.032 374.047 346.336C368.073 348.64 361.46 349.792 354.207 349.792ZM354.207 328.8C357.62 328.8 360.777 328.203 363.679 327.008C366.665 325.813 369.225 324.107 371.359 321.888C373.577 319.584 375.284 316.853 376.479 313.696C377.759 310.539 378.399 307.04 378.399 303.2C378.399 299.275 377.759 295.776 376.479 292.704C375.284 289.547 373.577 286.859 371.359 284.64C369.225 282.336 366.665 280.587 363.679 279.392C360.777 278.197 357.62 277.6 354.207 277.6C350.793 277.6 347.593 278.197 344.607 279.392C341.705 280.587 339.145 282.336 336.927 284.64C334.793 286.859 333.087 289.547 331.807 292.704C330.612 295.776 330.015 299.275 330.015 303.2C330.015 307.04 330.612 310.539 331.807 313.696C333.087 316.853 334.793 319.584 336.927 321.888C339.145 324.107 341.705 325.813 344.607 327.008C347.593 328.203 350.793 328.8 354.207 328.8ZM435.095 348V278.496H407.575V258.4H487.831V278.496H460.439V348H435.095ZM520.569 293.088H562.169V312.032H520.569V293.088ZM522.361 328.416H569.209V348H497.273V258.4H567.545V277.984H522.361V328.416ZM614.761 349.792C607.422 349.792 600.339 348.896 593.513 347.104C586.771 345.227 581.267 342.837 577.001 339.936L585.321 321.248C589.331 323.808 593.939 325.941 599.145 327.648C604.435 329.269 609.683 330.08 614.889 330.08C618.387 330.08 621.203 329.781 623.337 329.184C625.47 328.501 627.006 327.648 627.945 326.624C628.969 325.515 629.481 324.235 629.481 322.784C629.481 320.736 628.542 319.115 626.665 317.92C624.787 316.725 622.355 315.744 619.369 314.976C616.382 314.208 613.054 313.44 609.385 312.672C605.801 311.904 602.174 310.923 598.505 309.728C594.921 308.533 591.635 306.997 588.649 305.12C585.662 303.157 583.23 300.64 581.353 297.568C579.475 294.411 578.536 290.443 578.536 285.664C578.536 280.288 579.987 275.424 582.889 271.072C585.875 266.72 590.313 263.221 596.201 260.576C602.089 257.931 609.427 256.608 618.217 256.608C624.105 256.608 629.865 257.291 635.497 258.656C641.214 259.936 646.291 261.856 650.729 264.416L642.921 283.232C638.654 280.928 634.43 279.221 630.249 278.112C626.067 276.917 622.014 276.32 618.089 276.32C614.59 276.32 611.774 276.704 609.641 277.472C607.507 278.155 605.971 279.093 605.033 280.288C604.094 281.483 603.625 282.848 603.625 284.384C603.625 286.347 604.521 287.925 606.312 289.12C608.19 290.229 610.622 291.168 613.609 291.936C616.681 292.619 620.009 293.344 623.593 294.112C627.262 294.88 630.889 295.861 634.473 297.056C638.142 298.165 641.47 299.701 644.457 301.664C647.443 303.541 649.833 306.059 651.625 309.216C653.502 312.288 654.441 316.171 654.441 320.864C654.441 326.069 652.947 330.891 649.961 335.328C647.059 339.68 642.665 343.179 636.777 345.824C630.974 348.469 623.635 349.792 614.761 349.792Z"/>
</mask>
<path d="M164.621 348V278.624H188.941V348H164.621ZM176.781 270.944C172.343 270.944 168.759 269.707 166.029 267.232C163.298 264.757 161.933 261.685 161.933 258.016C161.933 254.347 163.298 251.275 166.029 248.8C168.759 246.325 172.343 245.088 176.781 245.088C181.218 245.088 184.802 246.283 187.533 248.672C190.263 250.976 191.629 253.963 191.629 257.632C191.629 261.472 190.263 264.672 187.533 267.232C184.887 269.707 181.303 270.944 176.781 270.944ZM205.898 348V258.4H226.762L276.17 318.048H266.314V258.4H291.146V348H270.282L220.874 288.352H230.729V348H205.898ZM354.207 349.792C347.039 349.792 340.425 348.64 334.367 346.336C328.308 344.032 323.017 340.789 318.495 336.608C314.057 332.341 310.601 327.392 308.127 321.76C305.652 316.128 304.415 309.941 304.415 303.2C304.415 296.459 305.652 290.272 308.127 284.64C310.601 279.008 314.057 274.101 318.495 269.92C323.017 265.653 328.308 262.368 334.367 260.064C340.425 257.76 347.039 256.608 354.207 256.608C361.46 256.608 368.073 257.76 374.047 260.064C380.105 262.368 385.353 265.653 389.791 269.92C394.228 274.101 397.684 279.008 400.159 284.64C402.719 290.272 403.999 296.459 403.999 303.2C403.999 309.941 402.719 316.171 400.159 321.888C397.684 327.52 394.228 332.427 389.791 336.608C385.353 340.789 380.105 344.032 374.047 346.336C368.073 348.64 361.46 349.792 354.207 349.792ZM354.207 328.8C357.62 328.8 360.777 328.203 363.679 327.008C366.665 325.813 369.225 324.107 371.359 321.888C373.577 319.584 375.284 316.853 376.479 313.696C377.759 310.539 378.399 307.04 378.399 303.2C378.399 299.275 377.759 295.776 376.479 292.704C375.284 289.547 373.577 286.859 371.359 284.64C369.225 282.336 366.665 280.587 363.679 279.392C360.777 278.197 357.62 277.6 354.207 277.6C350.793 277.6 347.593 278.197 344.607 279.392C341.705 280.587 339.145 282.336 336.927 284.64C334.793 286.859 333.087 289.547 331.807 292.704C330.612 295.776 330.015 299.275 330.015 303.2C330.015 307.04 330.612 310.539 331.807 313.696C333.087 316.853 334.793 319.584 336.927 321.888C339.145 324.107 341.705 325.813 344.607 327.008C347.593 328.203 350.793 328.8 354.207 328.8ZM435.095 348V278.496H407.575V258.4H487.831V278.496H460.439V348H435.095ZM520.569 293.088H562.169V312.032H520.569V293.088ZM522.361 328.416H569.209V348H497.273V258.4H567.545V277.984H522.361V328.416ZM614.761 349.792C607.422 349.792 600.339 348.896 593.513 347.104C586.771 345.227 581.267 342.837 577.001 339.936L585.321 321.248C589.331 323.808 593.939 325.941 599.145 327.648C604.435 329.269 609.683 330.08 614.889 330.08C618.387 330.08 621.203 329.781 623.337 329.184C625.47 328.501 627.006 327.648 627.945 326.624C628.969 325.515 629.481 324.235 629.481 322.784C629.481 320.736 628.542 319.115 626.665 317.92C624.787 316.725 622.355 315.744 619.369 314.976C616.382 314.208 613.054 313.44 609.385 312.672C605.801 311.904 602.174 310.923 598.505 309.728C594.921 308.533 591.635 306.997 588.649 305.12C585.662 303.157 583.23 300.64 581.353 297.568C579.475 294.411 578.536 290.443 578.536 285.664C578.536 280.288 579.987 275.424 582.889 271.072C585.875 266.72 590.313 263.221 596.201 260.576C602.089 257.931 609.427 256.608 618.217 256.608C624.105 256.608 629.865 257.291 635.497 258.656C641.214 259.936 646.291 261.856 650.729 264.416L642.921 283.232C638.654 280.928 634.43 279.221 630.249 278.112C626.067 276.917 622.014 276.32 618.089 276.32C614.59 276.32 611.774 276.704 609.641 277.472C607.507 278.155 605.971 279.093 605.033 280.288C604.094 281.483 603.625 282.848 603.625 284.384C603.625 286.347 604.521 287.925 606.312 289.12C608.19 290.229 610.622 291.168 613.609 291.936C616.681 292.619 620.009 293.344 623.593 294.112C627.262 294.88 630.889 295.861 634.473 297.056C638.142 298.165 641.47 299.701 644.457 301.664C647.443 303.541 649.833 306.059 651.625 309.216C653.502 312.288 654.441 316.171 654.441 320.864C654.441 326.069 652.947 330.891 649.961 335.328C647.059 339.68 642.665 343.179 636.777 345.824C630.974 348.469 623.635 349.792 614.761 349.792Z" fill="#FAAD05"/>
<path d="M164.621 348H163.621V349H164.621V348ZM164.621 278.624V277.624H163.621V278.624H164.621ZM188.941 278.624H189.941V277.624H188.941V278.624ZM188.941 348V349H189.941V348H188.941ZM166.029 267.232L166.7 266.491L166.7 266.491L166.029 267.232ZM166.029 248.8L166.7 249.541L166.7 249.541L166.029 248.8ZM187.533 248.672L186.874 249.425L186.881 249.43L186.888 249.436L187.533 248.672ZM187.533 267.232L188.216 267.962L188.216 267.962L187.533 267.232ZM165.621 348V278.624H163.621V348H165.621ZM164.621 279.624H188.941V277.624H164.621V279.624ZM187.941 278.624V348H189.941V278.624H187.941ZM188.941 347H164.621V349H188.941V347ZM176.781 269.944C172.538 269.944 169.211 268.766 166.7 266.491L165.357 267.973C168.308 270.647 172.148 271.944 176.781 271.944V269.944ZM166.7 266.491C164.177 264.205 162.933 261.402 162.933 258.016H160.933C160.933 261.969 162.418 265.31 165.357 267.973L166.7 266.491ZM162.933 258.016C162.933 254.63 164.177 251.827 166.7 249.541L165.357 248.059C162.418 250.722 160.933 254.063 160.933 258.016H162.933ZM166.7 249.541C169.211 247.266 172.538 246.088 176.781 246.088V244.088C172.148 244.088 168.308 245.385 165.357 248.059L166.7 249.541ZM176.781 246.088C181.032 246.088 184.364 247.228 186.874 249.425L188.191 247.919C185.24 245.337 181.404 244.088 176.781 244.088V246.088ZM186.888 249.436C189.386 251.544 190.629 254.248 190.629 257.632H192.629C192.629 253.677 191.14 250.408 188.177 247.908L186.888 249.436ZM190.629 257.632C190.629 261.204 189.372 264.137 186.849 266.502L188.216 267.962C191.155 265.207 192.629 261.74 192.629 257.632H190.629ZM186.849 266.502C184.432 268.763 181.115 269.944 176.781 269.944V271.944C181.491 271.944 185.342 270.651 188.216 267.962L186.849 266.502ZM205.898 348H204.898V349H205.898V348ZM205.898 258.4V257.4H204.898V258.4H205.898ZM226.762 258.4L227.532 257.762L227.232 257.4H226.762V258.4ZM276.17 318.048V319.048H278.296L276.94 317.41L276.17 318.048ZM266.314 318.048H265.314V319.048H266.314V318.048ZM266.314 258.4V257.4H265.314V258.4H266.314ZM291.146 258.4H292.146V257.4H291.146V258.4ZM291.146 348V349H292.146V348H291.146ZM270.282 348L269.511 348.638L269.811 349H270.282V348ZM220.874 288.352V287.352H218.747L220.103 288.99L220.874 288.352ZM230.729 288.352H231.729V287.352H230.729V288.352ZM230.729 348V349H231.729V348H230.729ZM206.898 348V258.4H204.898V348H206.898ZM205.898 259.4H226.762V257.4H205.898V259.4ZM225.991 259.038L275.399 318.686L276.94 317.41L227.532 257.762L225.991 259.038ZM276.17 317.048H266.314V319.048H276.17V317.048ZM267.314 318.048V258.4H265.314V318.048H267.314ZM266.314 259.4H291.146V257.4H266.314V259.4ZM290.146 258.4V348H292.146V258.4H290.146ZM291.146 347H270.282V349H291.146V347ZM271.052 347.362L221.644 287.714L220.103 288.99L269.511 348.638L271.052 347.362ZM220.874 289.352H230.729V287.352H220.874V289.352ZM229.729 288.352V348H231.729V288.352H229.729ZM230.729 347H205.898V349H230.729V347ZM334.367 346.336L334.011 347.271L334.011 347.271L334.367 346.336ZM318.495 336.608L317.801 337.329L317.808 337.336L317.816 337.342L318.495 336.608ZM308.127 321.76L307.211 322.162L307.211 322.162L308.127 321.76ZM308.127 284.64L307.211 284.238L307.211 284.238L308.127 284.64ZM318.495 269.92L319.18 270.648L319.181 270.647L318.495 269.92ZM334.367 260.064L334.011 259.129L334.011 259.129L334.367 260.064ZM374.047 260.064L373.687 260.997L373.691 260.999L374.047 260.064ZM389.791 269.92L389.097 270.641L389.105 270.648L389.791 269.92ZM400.159 284.64L399.243 285.042L399.248 285.054L400.159 284.64ZM400.159 321.888L399.246 321.479L399.243 321.486L400.159 321.888ZM389.791 336.608L390.476 337.336L390.476 337.336L389.791 336.608ZM374.047 346.336L373.691 345.401L373.687 345.403L374.047 346.336ZM363.679 327.008L363.307 326.079L363.298 326.083L363.679 327.008ZM371.359 321.888L370.638 321.194L370.638 321.195L371.359 321.888ZM376.479 313.696L375.552 313.32L375.547 313.331L375.543 313.342L376.479 313.696ZM376.479 292.704L375.543 293.058L375.549 293.073L375.555 293.089L376.479 292.704ZM371.359 284.64L370.625 285.319L370.638 285.334L370.651 285.347L371.359 284.64ZM363.679 279.392L363.298 280.317L363.307 280.32L363.679 279.392ZM344.607 279.392L344.235 278.463L344.226 278.467L344.607 279.392ZM336.927 284.64L336.206 283.946L336.206 283.947L336.927 284.64ZM331.807 292.704L330.88 292.328L330.877 292.335L330.874 292.342L331.807 292.704ZM331.807 313.696L330.871 314.05L330.875 314.061L330.88 314.072L331.807 313.696ZM336.927 321.888L336.193 322.567L336.206 322.582L336.219 322.595L336.927 321.888ZM344.607 327.008L344.226 327.933L344.235 327.936L344.607 327.008ZM354.207 348.792C347.147 348.792 340.656 347.658 334.722 345.401L334.011 347.271C340.195 349.622 346.93 350.792 354.207 350.792V348.792ZM334.722 345.401C328.777 343.14 323.597 339.964 319.173 335.874L317.816 337.342C322.437 341.615 327.839 344.924 334.011 347.271L334.722 345.401ZM319.188 335.887C314.844 331.711 311.464 326.87 309.042 321.358L307.211 322.162C309.738 327.914 313.27 332.972 317.801 337.329L319.188 335.887ZM309.042 321.358C306.628 315.864 305.415 309.816 305.415 303.2H303.415C303.415 310.066 304.675 316.392 307.211 322.162L309.042 321.358ZM305.415 303.2C305.415 296.584 306.628 290.536 309.042 285.042L307.211 284.238C304.675 290.008 303.415 296.334 303.415 303.2H305.415ZM309.042 285.042C311.463 279.532 314.841 274.736 319.18 270.648L317.809 269.192C313.273 273.466 309.739 278.484 307.211 284.238L309.042 285.042ZM319.181 270.647C323.604 266.475 328.781 263.258 334.722 260.999L334.011 259.129C327.835 261.478 322.431 264.832 317.808 269.193L319.181 270.647ZM334.722 260.999C340.656 258.742 347.147 257.608 354.207 257.608V255.608C346.93 255.608 340.195 256.778 334.011 259.129L334.722 260.999ZM354.207 257.608C361.353 257.608 367.842 258.743 373.687 260.997L374.406 259.131C368.304 256.777 361.567 255.608 354.207 255.608V257.608ZM373.691 260.999C379.631 263.257 384.762 266.472 389.097 270.641L390.484 269.199C385.944 264.834 380.58 261.479 374.402 259.129L373.691 260.999ZM389.105 270.648C393.444 274.736 396.822 279.532 399.243 285.042L401.074 284.238C398.546 278.484 395.012 273.466 390.476 269.192L389.105 270.648ZM399.248 285.054C401.744 290.545 402.999 296.588 402.999 303.2H404.999C404.999 296.329 403.693 289.999 401.069 284.226L399.248 285.054ZM402.999 303.2C402.999 309.811 401.744 315.9 399.246 321.479L401.071 322.297C403.693 316.441 404.999 310.071 404.999 303.2H402.999ZM399.243 321.486C396.822 326.996 393.444 331.792 389.105 335.88L390.476 337.336C395.012 333.062 398.546 328.044 401.074 322.29L399.243 321.486ZM389.105 335.88C384.769 339.966 379.635 343.141 373.691 345.401L374.402 347.271C380.575 344.923 385.938 341.613 390.476 337.336L389.105 335.88ZM373.687 345.403C367.842 347.657 361.353 348.792 354.207 348.792V350.792C361.567 350.792 368.304 349.623 374.406 347.269L373.687 345.403ZM354.207 329.8C357.739 329.8 361.027 329.181 364.059 327.933L363.298 326.083C360.527 327.224 357.501 327.8 354.207 327.8V329.8ZM364.05 327.936C367.162 326.691 369.843 324.907 372.079 322.581L370.638 321.195C368.607 323.307 366.168 324.935 363.307 326.08L364.05 327.936ZM372.079 322.582C374.397 320.175 376.174 317.327 377.414 314.05L375.543 313.342C374.394 316.38 372.758 318.993 370.638 321.194L372.079 322.582ZM377.405 314.072C378.739 310.781 379.399 307.152 379.399 303.2H377.399C377.399 306.928 376.778 310.297 375.552 313.32L377.405 314.072ZM379.399 303.2C379.399 299.166 378.741 295.533 377.402 292.319L375.555 293.089C376.776 296.019 377.399 299.383 377.399 303.2H379.399ZM377.414 292.35C376.173 289.07 374.392 286.259 372.066 283.933L370.651 285.347C372.762 287.458 374.395 290.023 375.543 293.058L377.414 292.35ZM372.092 283.961C369.856 281.545 367.171 279.712 364.05 278.464L363.307 280.32C366.159 281.461 368.595 283.127 370.625 285.319L372.092 283.961ZM364.059 278.467C361.027 277.219 357.739 276.6 354.207 276.6V278.6C357.501 278.6 360.527 279.176 363.298 280.317L364.059 278.467ZM354.207 276.6C350.674 276.6 347.347 277.219 344.235 278.464L344.978 280.32C347.839 279.176 350.913 278.6 354.207 278.6V276.6ZM344.226 278.467C341.194 279.716 338.519 281.545 336.206 283.946L337.647 285.334C339.771 283.127 342.216 281.458 344.987 280.317L344.226 278.467ZM336.206 283.947C333.975 286.267 332.202 289.066 330.88 292.328L332.733 293.08C333.971 290.028 335.611 287.451 337.647 285.333L336.206 283.947ZM330.874 292.342C329.627 295.549 329.015 299.174 329.015 303.2H331.015C331.015 299.376 331.596 296.003 332.739 293.066L330.874 292.342ZM329.015 303.2C329.015 307.144 329.628 310.765 330.871 314.05L332.742 313.342C331.595 310.312 331.015 306.936 331.015 303.2H329.015ZM330.88 314.072C332.201 317.332 333.971 320.167 336.193 322.567L337.66 321.209C335.616 319.001 333.972 316.375 332.733 313.32L330.88 314.072ZM336.219 322.595C338.531 324.907 341.202 326.688 344.226 327.933L344.987 326.083C342.208 324.939 339.759 323.306 337.634 321.181L336.219 322.595ZM344.235 327.936C347.347 329.181 350.674 329.8 354.207 329.8V327.8C350.913 327.8 347.839 327.224 344.978 326.08L344.235 327.936ZM435.095 348H434.095V349H435.095V348ZM435.095 278.496H436.095V277.496H435.095V278.496ZM407.575 278.496H406.575V279.496H407.575V278.496ZM407.575 258.4V257.4H406.575V258.4H407.575ZM487.831 258.4H488.831V257.4H487.831V258.4ZM487.831 278.496V279.496H488.831V278.496H487.831ZM460.439 278.496V277.496H459.439V278.496H460.439ZM460.439 348V349H461.439V348H460.439ZM436.095 348V278.496H434.095V348H436.095ZM435.095 277.496H407.575V279.496H435.095V277.496ZM408.575 278.496V258.4H406.575V278.496H408.575ZM407.575 259.4H487.831V257.4H407.575V259.4ZM486.831 258.4V278.496H488.831V258.4H486.831ZM487.831 277.496H460.439V279.496H487.831V277.496ZM459.439 278.496V348H461.439V278.496H459.439ZM460.439 347H435.095V349H460.439V347ZM520.569 293.088V292.088H519.569V293.088H520.569ZM562.169 293.088H563.169V292.088H562.169V293.088ZM562.169 312.032V313.032H563.169V312.032H562.169ZM520.569 312.032H519.569V313.032H520.569V312.032ZM522.361 328.416H521.361V329.416H522.361V328.416ZM569.209 328.416H570.209V327.416H569.209V328.416ZM569.209 348V349H570.209V348H569.209ZM497.273 348H496.273V349H497.273V348ZM497.273 258.4V257.4H496.273V258.4H497.273ZM567.545 258.4H568.545V257.4H567.545V258.4ZM567.545 277.984V278.984H568.545V277.984H567.545ZM522.361 277.984V276.984H521.361V277.984H522.361ZM520.569 294.088H562.169V292.088H520.569V294.088ZM561.169 293.088V312.032H563.169V293.088H561.169ZM562.169 311.032H520.569V313.032H562.169V311.032ZM521.569 312.032V293.088H519.569V312.032H521.569ZM522.361 329.416H569.209V327.416H522.361V329.416ZM568.209 328.416V348H570.209V328.416H568.209ZM569.209 347H497.273V349H569.209V347ZM498.273 348V258.4H496.273V348H498.273ZM497.273 259.4H567.545V257.4H497.273V259.4ZM566.545 258.4V277.984H568.545V258.4H566.545ZM567.545 276.984H522.361V278.984H567.545V276.984ZM521.361 277.984V328.416H523.361V277.984H521.361ZM593.513 347.104L593.244 348.067L593.251 348.069L593.259 348.071L593.513 347.104ZM577.001 339.936L576.087 339.529L575.747 340.293L576.438 340.763L577.001 339.936ZM585.321 321.248L585.859 320.405L584.879 319.78L584.407 320.841L585.321 321.248ZM599.145 327.648L598.833 328.598L598.842 328.601L598.851 328.604L599.145 327.648ZM623.337 329.184L623.606 330.147L623.624 330.142L623.641 330.136L623.337 329.184ZM627.945 326.624L627.21 325.946L627.207 325.948L627.945 326.624ZM626.665 317.92L626.128 318.764L626.128 318.764L626.665 317.92ZM619.369 314.976L619.618 314.008L619.618 314.008L619.369 314.976ZM609.385 312.672L609.175 313.65L609.18 313.651L609.385 312.672ZM598.505 309.728L598.188 310.677L598.195 310.679L598.505 309.728ZM588.649 305.12L588.099 305.956L588.108 305.961L588.116 305.967L588.649 305.12ZM581.353 297.568L580.493 298.079L580.499 298.089L581.353 297.568ZM582.889 271.072L582.064 270.506L582.056 270.517L582.889 271.072ZM596.201 260.576L595.791 259.664L595.791 259.664L596.201 260.576ZM635.497 258.656L635.261 259.628L635.269 259.63L635.278 259.632L635.497 258.656ZM650.729 264.416L651.652 264.799L651.989 263.988L651.228 263.55L650.729 264.416ZM642.921 283.232L642.445 284.112L643.42 284.638L643.844 283.615L642.921 283.232ZM630.249 278.112L629.974 279.074L629.983 279.076L629.992 279.079L630.249 278.112ZM609.641 277.472L609.945 278.424L609.962 278.419L609.979 278.413L609.641 277.472ZM605.033 280.288L604.246 279.67L604.246 279.67L605.033 280.288ZM606.312 289.12L605.758 289.952L605.78 289.967L605.804 289.981L606.312 289.12ZM613.609 291.936L613.359 292.904L613.375 292.909L613.392 292.912L613.609 291.936ZM623.593 294.112L623.383 295.09L623.388 295.091L623.593 294.112ZM634.473 297.056L634.156 298.005L634.17 298.009L634.183 298.013L634.473 297.056ZM644.457 301.664L643.907 302.5L643.916 302.505L643.924 302.511L644.457 301.664ZM651.625 309.216L650.755 309.71L650.763 309.724L650.771 309.737L651.625 309.216ZM649.961 335.328L649.131 334.77L649.128 334.773L649.961 335.328ZM636.777 345.824L636.367 344.912L636.362 344.914L636.777 345.824ZM614.761 348.792C607.504 348.792 600.507 347.906 593.766 346.137L593.259 348.071C600.171 349.886 607.34 350.792 614.761 350.792V348.792ZM593.781 346.141C587.109 344.283 581.714 341.932 577.563 339.109L576.438 340.763C580.82 343.743 586.433 346.171 593.244 348.067L593.781 346.141ZM577.914 340.343L586.234 321.655L584.407 320.841L576.087 339.529L577.914 340.343ZM584.782 322.091C588.874 324.702 593.56 326.869 598.833 328.598L599.456 326.698C594.319 325.013 589.789 322.914 585.859 320.405L584.782 322.091ZM598.851 328.604C604.231 330.253 609.578 331.08 614.889 331.08V329.08C609.789 329.08 604.639 328.286 599.438 326.692L598.851 328.604ZM614.889 331.08C618.432 331.08 621.35 330.779 623.606 330.147L623.067 328.221C621.057 328.784 618.342 329.08 614.889 329.08V331.08ZM623.641 330.136C625.849 329.43 627.574 328.508 628.682 327.3L627.207 325.948C626.437 326.788 625.091 327.573 623.032 328.232L623.641 330.136ZM628.679 327.302C629.866 326.017 630.481 324.497 630.481 322.784H628.481C628.481 323.972 628.071 325.013 627.21 325.946L628.679 327.302ZM630.481 322.784C630.481 320.36 629.337 318.436 627.201 317.076L626.128 318.764C627.746 319.794 628.481 321.112 628.481 322.784H630.481ZM627.201 317.076C625.208 315.808 622.67 314.792 619.618 314.008L619.119 315.944C622.041 316.696 624.366 317.643 626.128 318.764L627.201 317.076ZM619.618 314.008C616.614 313.235 613.27 312.464 609.589 311.693L609.18 313.651C612.837 314.416 616.15 315.181 619.119 315.944L619.618 314.008ZM609.594 311.694C606.046 310.934 602.452 309.962 598.814 308.777L598.195 310.679C601.895 311.884 605.555 312.874 609.175 313.65L609.594 311.694ZM598.821 308.779C595.307 307.608 592.095 306.105 589.181 304.273L588.116 305.967C591.175 307.889 594.534 309.459 598.188 310.677L598.821 308.779ZM589.198 304.284C586.335 302.403 584.007 299.994 582.206 297.047L580.499 298.089C582.453 301.286 584.988 303.911 588.099 305.956L589.198 304.284ZM582.212 297.057C580.45 294.094 579.536 290.316 579.536 285.664H577.536C577.536 290.57 578.5 294.727 580.493 298.079L582.212 297.057ZM579.536 285.664C579.536 280.48 580.932 275.81 583.721 271.627L582.056 270.517C579.042 275.038 577.536 280.096 577.536 285.664H579.536ZM583.713 271.638C586.575 267.468 590.852 264.075 596.61 261.488L595.791 259.664C589.773 262.368 585.175 265.972 582.064 270.506L583.713 271.638ZM596.61 261.488C602.332 258.918 609.52 257.608 618.217 257.608V255.608C609.334 255.608 601.845 256.944 595.791 259.664L596.61 261.488ZM618.217 257.608C624.026 257.608 629.707 258.282 635.261 259.628L635.732 257.684C630.022 256.3 624.183 255.608 618.217 255.608V257.608ZM635.278 259.632C640.911 260.893 645.891 262.779 650.229 265.282L651.228 263.55C646.692 260.933 641.517 258.979 635.715 257.68L635.278 259.632ZM649.805 264.033L641.997 282.849L643.844 283.615L651.652 264.799L649.805 264.033ZM643.396 282.352C639.068 280.015 634.771 278.277 630.505 277.145L629.992 279.079C634.089 280.165 638.24 281.841 642.445 284.112L643.396 282.352ZM630.523 277.15C626.262 275.933 622.116 275.32 618.089 275.32V277.32C621.912 277.32 625.872 277.902 629.974 279.074L630.523 277.15ZM618.089 275.32C614.53 275.32 611.586 275.709 609.302 276.531L609.979 278.413C611.962 277.699 614.65 277.32 618.089 277.32V275.32ZM609.336 276.52C607.097 277.236 605.354 278.26 604.246 279.67L605.819 280.906C606.588 279.926 607.917 279.074 609.945 278.424L609.336 276.52ZM604.246 279.67C603.167 281.043 602.625 282.627 602.625 284.384H604.625C604.625 283.069 605.02 281.922 605.819 280.906L604.246 279.67ZM602.625 284.384C602.625 286.718 603.72 288.593 605.758 289.952L606.867 288.288C605.321 287.257 604.625 285.976 604.625 284.384H602.625ZM605.804 289.981C607.788 291.153 610.316 292.122 613.359 292.904L613.858 290.968C610.928 290.214 608.592 289.305 606.821 288.259L605.804 289.981ZM613.392 292.912C616.466 293.595 619.797 294.321 623.383 295.09L623.802 293.134C620.22 292.367 616.895 291.642 613.825 290.96L613.392 292.912ZM623.388 295.091C627.019 295.851 630.609 296.822 634.156 298.005L634.789 296.107C631.169 294.901 627.505 293.909 623.797 293.133L623.388 295.091ZM634.183 298.013C637.767 299.097 641.007 300.594 643.907 302.5L645.006 300.828C641.933 298.809 638.517 297.234 634.762 296.099L634.183 298.013ZM643.924 302.511C646.767 304.297 649.042 306.692 650.755 309.71L652.494 308.722C650.623 305.426 648.119 302.785 644.989 300.817L643.924 302.511ZM650.771 309.737C652.528 312.612 653.441 316.3 653.441 320.864H655.441C655.441 316.041 654.476 311.964 652.478 308.695L650.771 309.737ZM653.441 320.864C653.441 325.865 652.01 330.492 649.131 334.77L650.79 335.886C653.885 331.289 655.441 326.274 655.441 320.864H653.441ZM649.128 334.773C646.353 338.936 642.123 342.326 636.367 344.912L637.186 346.736C643.206 344.032 647.765 340.424 650.793 335.883L649.128 334.773ZM636.362 344.914C630.73 347.482 623.545 348.792 614.761 348.792V350.792C623.726 350.792 631.218 349.457 637.191 346.734L636.362 344.914Z" fill="black" mask="url(#path-2-outside-1_24_6)"/>
</g>
<defs>
<filter id="filter0_d_24_6" x="159.932" y="245.088" width="500.508" height="115.704" filterUnits="userSpaceOnUse" color-interpolation-filters="sRGB">
<feFlood flood-opacity="0" result="BackgroundImageFix"/>
<feColorMatrix in="SourceAlpha" type="matrix" values="0 0 0 0 0 0 0 0 0 0 0 0 0 0 0 0 0 0 127 0" result="hardAlpha"/>
<feOffset dx="2" dy="7"/>
<feGaussianBlur stdDeviation="2"/>
<feComposite in2="hardAlpha" operator="out"/>
<feColorMatrix type="matrix" values="0 0 0 0 0 0 0 0 0 0 0 0 0 0 0 0 0 0 0.25 0"/>
<feBlend mode="normal" in2="BackgroundImageFix" result="effect1_dropShadow_24_6"/>
<feBlend mode="normal" in="SourceGraphic" in2="effect1_dropShadow_24_6" result="shape"/>
</filter>
</defs>
</svg>
