<svg width="600" height="600" viewBox="0 0 600 600" fill="none" xmlns="http://www.w3.org/2000/svg">
<circle cx="300" cy="300" r="300" fill="#FAAD05"/>
<path d="M185.947 130.694L185.973 130.688L364.098 93.657L373.125 91.7804V101V391.625V397.69L367.194 398.959L198.453 435.051C198.451 435.051 198.449 435.052 198.447 435.052C194.786 435.842 191.792 437.656 189.267 440.714L189.266 440.716C186.708 443.813 185.625 446.912 185.625 450.219C185.625 453.849 186.91 456.548 189.841 458.893C193.141 461.533 196.94 462.875 201.562 462.875H414.375V161V153.5H421.875H450H457.5V161V498.5V506H450H201.562C185.678 506 171.754 500.702 160.181 490.149C148.477 479.477 142.5 466.007 142.5 450.219V185.844C142.5 172.777 146.494 160.948 154.415 150.612L185.947 130.694ZM185.947 130.694L185.921 130.699M185.947 130.694L185.921 130.699M185.921 130.699C173.017 133.478 162.418 140.167 154.416 150.611L185.921 130.699ZM185.625 394.88V185.844C185.625 182.263 186.736 179.615 188.891 177.4L188.893 177.398C191.406 174.813 194.527 173.027 198.478 172.078L198.75 172.024V391.538L195.432 392.233C192.049 392.854 188.777 393.734 185.625 394.88ZM330 363.527L241.875 382.353V162.902L330 144.877V363.527Z" fill="#590C59" stroke="#590C59" stroke-width="15"/>
</svg>
